<svg xmlns="http://www.w3.org/2000/svg" aria-hidden="true" style="position:absolute;width:0;height:0;overflow:hidden">
  <defs>
    <symbol id="icon-trash" viewBox="0 0 32 32">
      <path fill="none" stroke="#686868" stroke-linecap="round" stroke-linejoin="round" stroke-width="2.286" d="M4 8h24M25.334 8v18.667a2.668 2.668 0 0 1-2.667 2.667H9.334a2.668 2.668 0 0 1-2.667-2.667V8m4 0V5.333a2.67 2.67 0 0 1 2.667-2.667h5.333a2.668 2.668 0 0 1 2.667 2.667V8M13.333 14.667v8M18.667 14.667v8" style="stroke:var(--color1, #686868)"/>
    </symbol>
    <symbol id="icon-block-tab-active" viewBox="0 0 32 32">
      <path fill="#686868" d="M6.4 0h19.2A6.4 6.4 0 0 1 32 6.4v19.2a6.4 6.4 0 0 1-6.4 6.4H6.4A6.4 6.4 0 0 1 0 25.6V6.4A6.4 6.4 0 0 1 6.4 0z" style="fill:var(--color1, #686868)"/>
      <path fill="#1f1f1f" d="M9.6 6.4h12.8a3.2 3.2 0 0 1 3.2 3.2v12.8a3.2 3.2 0 0 1-3.2 3.2H9.6a3.2 3.2 0 0 1-3.2-3.2V9.6a3.2 3.2 0 0 1 3.2-3.2z" style="fill:var(--color2, #1f1f1f)"/>
    </symbol>
    <symbol id="icon-block-tab-gray" viewBox="0 0 32 32">
      <path fill="#f9f9f9" d="M6.4 0h19.2A6.4 6.4 0 0 1 32 6.4v19.2a6.4 6.4 0 0 1-6.4 6.4H6.4A6.4 6.4 0 0 1 0 25.6V6.4A6.4 6.4 0 0 1 6.4 0z" style="fill:var(--color3, #f9f9f9)"/>
      <path fill="#141414" d="M9.6 6.4h12.8a3.2 3.2 0 0 1 3.2 3.2v12.8a3.2 3.2 0 0 1-3.2 3.2H9.6a3.2 3.2 0 0 1-3.2-3.2V9.6a3.2 3.2 0 0 1 3.2-3.2z" style="fill:var(--color4, #141414)"/>
    </symbol>
    <symbol id="icon-chevron-left" viewBox="0 0 32 32">
      <path fill="none" stroke="#f9f9f9" stroke-linecap="round" stroke-linejoin="round" stroke-width="2.4" d="m20 24-8-8 8-8" style="stroke:var(--color3, #f9f9f9)"/>
    </symbol>
    <symbol id="icon-chevron-rihgt" viewBox="0 0 32 32">
      <path fill="none" stroke="#f9f9f9" stroke-linecap="round" stroke-linejoin="round" stroke-width="3" d="m12 8 8 8-8 8" style="stroke:var(--color3, #f9f9f9)"/>
    </symbol>
    <symbol id="icon-burger-menu" viewBox="0 0 32 32">
      <path fill="none" stroke="#f9f9f9" stroke-linecap="round" stroke-linejoin="round" stroke-width="2.286" d="M4 16h24M4 8h24M12 24h16" style="stroke:var(--color3, #f9f9f9)"/>
    </symbol>
    <symbol id="icon-eye-off" viewBox="0 0 32 32">
      <path fill="none" stroke="#f9f9f9" stroke-linecap="round" stroke-linejoin="round" stroke-width="2.08" d="M23.92 23.92A13.43 13.43 0 0 1 16 26.667C6.667 26.667 1.333 16 1.333 16A24.605 24.605 0 0 1 8.08 8.08m5.12-2.427a12.161 12.161 0 0 1 2.8-.32C25.333 5.333 30.667 16 30.667 16a24.646 24.646 0 0 1-2.88 4.253m-8.96-1.426a4.003 4.003 0 0 1-5.755.102 3.994 3.994 0 0 1-.824-4.457c.219-.491.534-.932.927-1.298M1.333 1.333l29.333 29.333" style="stroke:var(--color3, #f9f9f9)"/>
    </symbol>
    <symbol id="icon-eye" viewBox="0 0 32 32">
      <path fill="none" stroke="#f9f9f9" stroke-linecap="round" stroke-linejoin="round" stroke-width="2.08" d="M1.333 16S6.666 5.333 16 5.333 30.667 16 30.667 16 25.334 26.667 16 26.667C6.667 26.667 1.333 16 1.333 16z" style="stroke:var(--color3, #f9f9f9)"/>
      <path fill="none" stroke="#f9f9f9" stroke-linecap="round" stroke-linejoin="round" stroke-width="2.08" d="M16 20a4 4 0 1 0 0-8 4 4 0 0 0 0 8z" style="stroke:var(--color3, #f9f9f9)"/>
    </symbol>
    <symbol id="icon-log-in" viewBox="0 0 32 32">
      <path fill="none" stroke="#e3e3e3" stroke-linecap="round" stroke-linejoin="round" stroke-width="2.667" d="M18.667 22.667 25.334 16l-6.667-6.667M25.333 16H6.666" style="stroke:var(--color5, #e3e3e3)"/>
    </symbol>
    <symbol id="icon-hourglass" viewBox="0 0 32 32">
      <path fill="none" stroke="#f9f9f9" stroke-linecap="round" stroke-linejoin="round" stroke-width="3.2" d="m16 16-5.697-4.748c-.846-.705-1.27-1.058-1.574-1.49a3.978 3.978 0 0 1-.591-1.263c-.137-.511-.137-1.061-.137-2.163V2.667M16 16l5.697-4.748c.847-.705 1.27-1.058 1.574-1.49.27-.383.47-.811.592-1.263C24 7.988 24 7.438 24 6.336V2.667M16 16l-5.697 4.748c-.846.705-1.27 1.058-1.574 1.49-.27.383-.47.811-.591 1.263-.137.511-.137 1.061-.137 2.163v3.669M16 16l5.697 4.748c.847.705 1.27 1.058 1.574 1.49.27.383.47.811.592 1.263.137.511.137 1.061.137 2.163v3.669M5.333 2.667h21.333M5.333 29.333h21.333" style="stroke:var(--color3, #f9f9f9)"/>
    </symbol>
    <symbol id="icon-read-on" viewBox="0 0 32 32">
      <path fill="none" stroke="#f9f9f9" stroke-width="1.28" d="M31.36 16c0 8.483-6.877 15.36-15.36 15.36S.64 24.483.64 16 7.517.64 16 .64 31.36 7.517 31.36 16z" style="stroke:var(--color3, #f9f9f9)"/>
      <path fill="#e90516" d="M11.52 9.6h8.96c1.06 0 1.92.86 1.92 1.92v8.96c0 1.06-.86 1.92-1.92 1.92h-8.96a1.92 1.92 0 0 1-1.92-1.92v-8.96c0-1.06.86-1.92 1.92-1.92z" style="fill:var(--color6, #e90516)"/>
    </symbol>
    <symbol id="icon-read-off" viewBox="0 0 32 32">
      <path fill="#e90516" d="M28.8 16c0 7.069-5.731 12.8-12.8 12.8S3.2 23.069 3.2 16C3.2 8.931 8.931 3.2 16 3.2S28.8 8.931 28.8 16z" style="fill:var(--color6, #e90516)"/>
      <path fill="none" stroke="#f9f9f9" stroke-width="1.28" d="M31.36 16c0 8.483-6.877 15.36-15.36 15.36S.64 24.483.64 16 7.517.64 16 .64 31.36 7.517 31.36 16z" style="stroke:var(--color3, #f9f9f9)"/>
    </symbol>
    <symbol id="icon-logo" viewBox="0 0 79 32">
      <path fill="#f9f9f9" d="M0 20.706V0h24.264c3.299 0 6.512 1.051 9.173 3.001a11.704 11.704 0 0 1 3.693 4.503l2.807 6.034a40.83 40.83 0 0 1 4.055-7.536l.139-.204c.463-.679.992-1.31 1.58-1.884l1.196-1.168A8.113 8.113 0 0 1 49.626.991l.103-.04A13.854 13.854 0 0 1 54.776 0h24.283v20.706H0zM0 24.471h79.059V32H0v-7.529z" style="fill:var(--color3, #f9f9f9)"/>
    </symbol>
  </defs>
</svg>
